<?xml version="1.0" standalone="no"?>
<!DOCTYPE svg PUBLIC "-//W3C//DTD SVG 20010904//EN"
 "http://www.w3.org/TR/2001/REC-SVG-20010904/DTD/svg10.dtd">
<svg version="1.0" xmlns="http://www.w3.org/2000/svg"
 width="1323.000000pt" height="1956.000000pt" viewBox="0 0 1323.000000 1956.000000"
 preserveAspectRatio="xMidYMid meet">

<g transform="translate(0.000000,1956.000000) scale(0.100000,-0.100000)"
fill="#000000" stroke="none">
<path d="M5453 19355 c-10 -11 -13 -121 -13 -480 l0 -465 -726 0 -725 0 3
-1007 c2 -794 6 -1007 16 -1011 7 -2 12 -21 12 -48 0 -24 5 -44 10 -44 6 0 10
-11 10 -25 0 -14 4 -25 9 -25 4 0 11 -21 14 -47 3 -26 10 -49 16 -51 6 -2 11
-15 11 -28 0 -13 4 -24 9 -24 5 0 12 -16 15 -35 4 -19 11 -35 16 -35 6 0 10
-9 10 -20 0 -11 5 -20 10 -20 6 0 10 -7 10 -15 0 -8 5 -15 10 -15 6 0 10 -9
10 -20 0 -11 7 -23 15 -26 8 -4 15 -14 15 -24 0 -10 7 -20 15 -24 8 -3 15 -13
15 -22 0 -16 35 -54 51 -54 4 0 11 -10 15 -22 6 -19 26 -44 63 -82 58 -56 70
-66 85 -66 9 0 16 -4 16 -10 0 -15 72 -80 90 -80 5 0 10 -4 10 -9 0 -5 10 -13
23 -17 12 -4 29 -15 38 -25 9 -11 21 -19 28 -19 6 0 11 -4 11 -9 0 -5 16 -12
35 -15 19 -4 35 -11 35 -16 0 -6 9 -10 20 -10 11 0 20 -4 20 -10 0 -5 18 -13
40 -16 22 -4 40 -10 40 -15 0 -5 9 -9 20 -9 11 0 20 -4 20 -10 0 -5 14 -10 30
-10 17 0 30 -4 30 -9 0 -6 32 -13 70 -17 39 -3 70 -11 70 -15 0 -5 32 -9 70
-9 40 0 70 -4 70 -10 0 -7 348 -10 1025 -10 677 0 1025 3 1025 10 0 6 30 10
70 10 39 0 70 4 70 9 0 4 30 11 67 14 38 4 69 11 71 17 2 5 19 10 38 10 19 0
34 5 34 10 0 6 7 10 15 10 8 0 15 4 15 9 0 5 20 12 45 15 25 4 45 11 45 17 0
5 7 9 15 9 8 0 15 4 15 9 0 5 16 12 35 15 19 4 35 11 35 16 0 6 6 10 13 10 7
0 19 9 27 20 8 11 23 20 33 20 9 0 20 7 23 15 4 8 12 15 20 15 8 0 30 16 48
35 19 19 37 35 41 35 7 0 30 18 48 38 7 7 18 18 25 25 48 45 82 83 82 93 0 4
16 21 35 40 19 18 35 39 35 47 0 8 7 17 15 21 8 3 15 14 15 25 0 11 9 22 19
26 12 3 21 19 25 40 4 19 11 35 16 35 6 0 10 9 10 20 0 11 5 20 10 20 6 0 10
7 10 15 0 8 4 15 9 15 5 0 12 16 15 35 4 19 11 35 16 35 6 0 10 11 10 25 0 14
4 25 10 25 5 0 12 27 16 60 4 33 11 60 15 60 5 0 9 20 9 45 0 25 5 45 10 45 6
0 10 28 10 65 0 37 4 65 10 65 6 0 11 60 12 158 1 86 3 140 5 120 2 -21 8 -38
14 -38 5 0 9 -7 9 -15 0 -8 4 -15 9 -15 5 0 12 -20 15 -45 4 -25 11 -45 17
-45 5 0 9 -6 9 -13 0 -7 11 -21 25 -31 14 -10 25 -25 25 -33 0 -15 86 -103
100 -103 5 0 12 -9 15 -20 3 -11 15 -20 25 -20 10 0 20 -7 24 -15 3 -8 15 -15
26 -15 11 0 20 -4 20 -10 0 -5 7 -10 15 -10 8 0 15 -4 15 -9 0 -5 16 -12 35
-15 19 -4 35 -11 35 -16 0 -6 11 -10 25 -10 14 0 25 -4 25 -10 0 -5 25 -10 55
-10 30 0 55 -4 55 -10 0 -6 75 -10 205 -10 l205 0 0 174 0 174 -232 4 c-174 2
-232 6 -236 16 -2 6 -10 12 -18 12 -8 0 -14 5 -14 10 0 6 -5 10 -10 10 -12 0
-23 8 -75 57 -19 18 -35 38 -35 44 0 6 -7 17 -15 25 -8 9 -15 26 -15 40 0 13
-4 24 -10 24 -5 0 -10 23 -10 50 0 28 -4 50 -10 50 -5 0 -10 11 -10 25 0 14 5
25 10 25 16 0 13 397 -2 403 -10 4 -10 6 0 6 8 1 12 20 12 61 0 33 4 60 9 60
5 0 11 18 15 41 5 30 17 50 51 82 62 59 73 67 85 67 5 0 10 5 10 10 0 6 6 10
14 10 8 0 16 6 18 13 4 9 62 13 236 15 l232 4 0 174 0 174 -225 0 c-143 0
-225 -4 -225 -10 0 -5 -16 -10 -35 -10 -19 0 -35 -4 -35 -10 0 -5 -11 -10 -25
-10 -14 0 -25 -4 -25 -10 0 -5 -17 -12 -37 -16 -21 -4 -45 -15 -54 -26 -9 -10
-24 -18 -33 -18 -9 0 -19 -7 -22 -15 -4 -8 -14 -15 -24 -15 -10 0 -22 -9 -25
-20 -3 -11 -10 -20 -15 -20 -14 0 -100 -88 -100 -103 0 -8 -11 -23 -25 -33
-14 -10 -25 -24 -25 -31 0 -7 -4 -13 -9 -13 -6 0 -13 -20 -17 -45 -3 -25 -10
-45 -15 -45 -5 0 -9 -7 -9 -15 0 -8 -4 -15 -9 -15 -6 0 -12 -17 -14 -37 -2
-21 -4 148 -5 375 l-2 412 -645 0 -645 0 0 480 0 480 -170 0 -170 0 0 -480 0
-480 -559 0 c-500 0 -559 2 -565 16 -3 9 -6 225 -6 480 l0 464 -162 0 c-128
-1 -166 -4 -175 -15z m-13 -1796 c0 -429 2 -513 14 -525 11 -11 49 -14 175
-14 l161 0 0 509 c0 280 3 516 6 525 6 14 65 16 565 16 l559 0 0 -525 0 -525
170 0 170 0 0 511 c0 429 2 513 14 525 12 12 88 14 465 14 l451 0 0 -805 c0
-530 -3 -805 -10 -805 -5 0 -10 -20 -10 -45 0 -25 -4 -45 -10 -45 -5 0 -10
-11 -10 -25 0 -14 -4 -25 -9 -25 -5 0 -12 -20 -15 -45 -4 -25 -11 -45 -17 -45
-5 0 -9 -11 -9 -25 0 -14 -4 -25 -10 -25 -5 0 -12 -11 -16 -25 -3 -14 -10 -25
-15 -25 -5 0 -9 -6 -9 -13 0 -7 -9 -19 -20 -27 -11 -8 -20 -22 -20 -31 0 -9
-11 -25 -25 -35 -14 -10 -25 -24 -25 -31 0 -15 -117 -133 -131 -133 -6 0 -23
-13 -38 -29 -14 -15 -36 -31 -49 -35 -12 -4 -22 -12 -22 -17 0 -5 -7 -9 -15
-9 -8 0 -15 -4 -15 -10 0 -5 -9 -10 -20 -10 -11 0 -23 -7 -26 -15 -4 -8 -17
-15 -30 -15 -13 0 -24 -4 -24 -10 0 -5 -9 -10 -20 -10 -11 0 -20 -4 -20 -10 0
-5 -27 -12 -60 -16 -33 -4 -60 -11 -60 -15 0 -5 -16 -9 -35 -9 -19 0 -35 -4
-35 -10 0 -7 -372 -10 -1095 -10 -723 0 -1095 3 -1095 10 0 6 -20 10 -45 10
-25 0 -45 4 -45 9 0 5 -22 12 -50 16 -27 4 -50 11 -50 16 0 5 -7 9 -15 9 -8 0
-15 5 -15 10 0 6 -9 10 -20 10 -11 0 -20 4 -20 10 0 5 -16 12 -35 16 -19 3
-35 10 -35 15 0 5 -7 9 -15 9 -8 0 -15 4 -15 9 0 5 -10 13 -22 17 -13 4 -34
19 -48 34 -14 15 -35 30 -47 34 -12 4 -25 16 -28 27 -4 10 -10 19 -15 19 -13
0 -80 72 -80 86 0 4 -11 17 -25 30 -14 13 -25 29 -25 36 0 8 -9 20 -20 28 -10
8 -22 27 -25 42 -4 15 -11 28 -16 28 -5 0 -9 9 -9 20 0 11 -4 20 -10 20 -5 0
-12 16 -16 35 -3 19 -10 35 -15 35 -5 0 -9 11 -9 25 0 14 -4 25 -10 25 -5 0
-10 15 -10 34 0 19 -6 36 -12 38 -10 4 -14 183 -16 841 l-3 837 546 0 545 0 0
-511z"/>
<path d="M4690 13245 l0 -695 95 0 95 0 0 695 0 695 -95 0 -95 0 0 -695z"/>
<path d="M320 13235 l0 -685 230 0 c127 0 230 4 230 9 0 5 14 11 31 15 31 6
59 27 59 44 0 6 6 12 12 15 19 6 19 1138 1 1145 -7 2 -13 12 -13 23 0 10 -4
19 -10 19 -5 0 -10 4 -10 10 0 17 -34 50 -52 50 -10 0 -18 5 -18 10 0 6 -7 10
-15 10 -8 0 -15 5 -15 10 0 6 -78 10 -215 10 l-215 0 0 -685z m371 493 c18
-20 19 -47 19 -499 0 -262 -3 -484 -6 -493 -3 -9 -15 -16 -25 -16 -10 0 -19
-4 -19 -10 0 -6 -32 -10 -75 -10 l-75 0 0 525 0 525 81 0 c71 0 84 -3 100 -22z"/>
<path d="M1570 13910 c0 -5 -7 -10 -15 -10 -8 0 -15 -4 -15 -9 0 -5 -10 -11
-22 -13 -15 -2 -24 -11 -26 -25 -2 -13 -8 -23 -13 -23 -5 0 -9 -7 -9 -15 0 -8
-4 -15 -10 -15 -5 0 -10 -11 -10 -25 0 -14 -4 -25 -10 -25 -7 0 -10 -207 -10
-600 l0 -600 95 0 95 0 0 250 0 250 105 0 105 0 0 -250 0 -250 95 0 95 0 0
615 c0 403 -3 615 -10 615 -5 0 -10 9 -10 20 0 11 -4 20 -9 20 -5 0 -12 11
-15 24 -3 14 -15 28 -26 31 -11 3 -20 11 -20 16 0 5 -11 9 -25 9 -14 0 -25 5
-25 10 0 6 -58 10 -155 10 -97 0 -155 -4 -155 -10z m246 -174 c11 -12 14 -61
14 -265 l0 -251 -105 0 -105 0 0 240 c0 236 0 241 23 265 19 20 32 24 90 24
47 1 73 -4 83 -13z"/>
<path d="M2560 13235 l0 -685 95 0 95 0 0 310 0 310 115 0 115 0 0 -310 0
-310 90 0 90 0 0 685 0 685 -90 0 -90 0 0 -290 0 -290 -115 0 -115 0 0 290 0
290 -95 0 -95 0 0 -685z"/>
<path d="M3730 13235 l0 -685 225 0 225 0 0 75 0 75 -126 0 c-95 0 -129 3
-140 14 -11 12 -14 57 -14 235 l0 221 120 0 120 0 0 85 0 85 -120 0 -120 0 0
205 0 205 140 0 140 0 0 85 0 85 -225 0 -225 0 0 -685z"/>
<path d="M5440 13235 l0 -685 90 0 90 0 0 400 c0 260 -3 400 -10 400 -5 0 -10
9 -10 20 0 11 4 20 9 20 10 0 21 -48 21 -91 0 -16 5 -29 10 -29 6 0 10 -16 10
-35 0 -19 4 -35 9 -35 5 0 12 -38 16 -85 4 -47 11 -85 16 -85 5 0 9 -16 9 -35
0 -19 5 -35 10 -35 6 0 10 -20 10 -45 0 -25 5 -45 10 -45 6 0 10 -11 10 -24 0
-51 8 -56 81 -56 67 0 69 1 69 25 0 14 4 25 9 25 5 0 12 38 16 85 4 47 11 85
16 85 5 0 9 20 9 45 0 25 5 45 10 45 6 0 10 16 10 35 0 19 4 35 9 35 5 0 12
38 16 85 4 47 11 85 16 85 5 0 9 16 9 35 0 19 5 35 10 35 6 0 10 -53 10 -140
0 -87 -4 -140 -10 -140 -6 0 -10 -103 -10 -290 l0 -290 95 0 95 0 0 671 c0
568 -2 673 -14 685 -11 10 -40 14 -104 14 -99 0 -102 -2 -102 -66 0 -19 -4
-34 -10 -34 -5 0 -10 -16 -10 -35 0 -19 -4 -35 -10 -35 -5 0 -10 -20 -10 -45
0 -25 -4 -45 -9 -45 -5 0 -12 -34 -16 -75 -4 -41 -11 -75 -16 -75 -5 0 -9 -20
-9 -45 0 -25 -4 -45 -9 -45 -5 0 -12 -34 -16 -75 -4 -41 -11 -75 -16 -75 -5 0
-9 -22 -9 -50 0 -27 -4 -50 -10 -50 -5 0 -10 -9 -10 -20 0 -11 -4 -20 -9 -20
-5 0 -13 36 -17 80 -3 44 -11 80 -15 80 -5 0 -9 18 -9 40 0 22 -4 40 -9 40 -5
0 -13 36 -17 80 -3 44 -11 80 -15 80 -5 0 -9 18 -9 40 0 22 -4 40 -10 40 -5 0
-10 20 -10 44 0 24 -4 46 -10 48 -5 2 -12 36 -16 76 -4 39 -11 72 -15 72 -5 0
-9 16 -9 35 l0 35 -105 0 -105 0 0 -685z"/>
<path d="M6750 13235 l0 -685 240 0 c134 0 240 4 240 9 0 5 11 12 24 15 14 3
28 15 31 26 3 11 11 20 16 20 5 0 9 11 9 25 0 14 5 25 10 25 6 0 10 83 10 230
0 147 -4 230 -10 230 -5 0 -10 11 -10 25 0 14 -4 25 -9 25 -5 0 -12 8 -16 19
-3 11 -19 21 -36 25 -28 5 -59 27 -59 40 0 3 9 6 20 6 11 0 20 4 20 9 0 5 11
12 25 15 15 4 27 16 31 31 3 14 10 25 15 25 5 0 9 90 9 200 0 110 -4 200 -9
200 -4 0 -11 16 -14 35 -7 41 -75 115 -106 115 -12 0 -21 5 -21 10 0 6 -75 10
-205 10 l-205 0 0 -685z m351 493 c17 -19 19 -39 19 -178 0 -196 -4 -202 -111
-208 l-69 -4 0 206 0 206 71 0 c61 0 74 -3 90 -22z m14 -578 c3 -11 11 -20 16
-20 5 0 9 -79 9 -191 0 -152 -3 -193 -14 -205 -8 -8 -19 -14 -25 -14 -6 0 -11
-4 -11 -10 0 -6 -32 -10 -75 -10 l-75 0 0 235 0 235 84 0 c76 0 85 -2 91 -20z"/>
<path d="M7873 13905 c-10 -11 -13 -140 -13 -575 0 -311 4 -560 9 -560 4 0 12
-31 15 -70 4 -38 11 -70 17 -70 5 0 22 -13 37 -30 16 -16 37 -30 46 -30 9 0
16 -4 16 -10 0 -6 63 -10 170 -10 107 0 170 4 170 10 0 6 6 10 14 10 26 0 86
65 86 93 0 15 5 27 10 27 7 0 10 212 10 615 l0 615 -85 0 -85 0 0 -584 c0
-571 0 -585 -19 -591 -11 -3 -23 -15 -26 -26 -5 -16 -16 -19 -66 -19 -33 0
-59 4 -59 10 0 6 -7 10 -15 10 -8 0 -24 9 -35 20 -20 20 -20 33 -20 600 l0
580 -82 0 c-59 -1 -87 -5 -95 -15z"/>
<path d="M9030 13235 l0 -685 90 0 90 0 0 275 0 275 54 0 c58 0 66 -7 66 -61
0 -16 5 -29 10 -29 6 0 10 -18 10 -40 0 -22 5 -40 10 -40 6 0 10 -16 10 -35 0
-19 4 -35 9 -35 5 0 12 -38 16 -85 4 -47 11 -85 16 -85 5 0 9 -16 9 -35 0 -19
5 -35 10 -35 6 0 10 -16 10 -35 l0 -35 85 0 85 0 0 35 c0 19 -4 35 -10 35 -5
0 -10 18 -10 40 0 22 -4 40 -9 40 -5 0 -13 36 -17 80 -3 44 -11 80 -15 80 -5
0 -9 16 -9 35 0 19 -4 35 -9 35 -5 0 -12 34 -16 75 -4 41 -11 75 -16 75 -23 0
-9 26 44 79 15 16 27 36 27 45 0 9 5 16 10 16 6 0 10 43 10 110 0 67 4 110 10
110 6 0 10 52 10 135 0 83 -4 135 -10 135 -5 0 -10 20 -10 45 0 25 -4 45 -10
45 -5 0 -10 6 -10 14 0 19 -66 86 -85 86 -8 0 -15 5 -15 10 0 6 -80 10 -220
10 l-220 0 0 -685z m364 499 c3 -9 6 -24 6 -35 0 -10 5 -19 10 -19 6 0 10 -67
10 -180 0 -99 -4 -180 -9 -180 -5 0 -12 -11 -15 -25 -4 -16 -13 -25 -26 -25
-11 0 -20 -4 -20 -10 0 -6 -30 -10 -70 -10 l-70 0 0 250 0 250 89 0 c72 0 90
-3 95 -16z"/>
<path d="M10260 13910 c0 -5 -7 -10 -15 -10 -8 0 -15 -4 -15 -9 0 -5 -13 -11
-29 -14 -23 -5 -30 -13 -35 -42 -4 -19 -11 -35 -16 -35 -6 0 -10 -16 -10 -35
0 -19 -4 -35 -10 -35 -7 0 -10 -172 -10 -495 0 -323 3 -495 10 -495 6 0 10
-20 10 -45 0 -25 5 -45 10 -45 6 0 10 -7 10 -15 0 -18 47 -65 65 -65 8 0 15
-4 15 -10 0 -6 85 -10 235 -10 l235 0 0 335 0 335 -140 0 -140 0 0 -85 0 -85
45 0 45 0 0 -175 0 -175 -70 0 c-40 0 -70 4 -70 10 0 6 -7 10 -15 10 -8 0 -15
4 -15 9 0 5 -9 13 -20 16 -20 6 -20 15 -20 481 0 309 3 474 10 474 6 0 10 5
10 11 0 25 30 39 85 39 46 0 60 -4 80 -24 21 -21 25 -35 27 -108 l3 -83 93 -3
92 -3 0 111 c0 67 -4 110 -10 110 -5 0 -10 16 -10 35 0 19 -4 35 -10 35 -5 0
-10 5 -10 11 0 15 -22 35 -48 43 -12 4 -22 12 -22 17 0 5 -11 9 -25 9 -14 0
-25 5 -25 10 0 6 -55 10 -145 10 -90 0 -145 -4 -145 -10z"/>
<path d="M11240 13235 l0 -685 230 0 230 0 0 75 0 75 -135 0 -135 0 0 235 0
235 120 0 120 0 0 85 0 85 -120 0 -120 0 0 205 0 205 113 2 c61 0 117 2 122 3
6 2 16 3 23 4 8 1 12 24 12 81 l0 80 -230 0 -230 0 0 -685z"/>
<path d="M12210 13235 l0 -685 95 0 95 0 0 275 0 275 46 0 c53 0 74 -16 74
-59 0 -17 5 -31 10 -31 6 0 10 -18 10 -40 0 -22 4 -40 9 -40 5 0 13 -36 17
-80 3 -44 11 -80 15 -80 5 0 9 -18 9 -40 0 -22 4 -40 9 -40 5 0 12 -31 16 -70
l7 -70 89 0 89 0 0 35 c0 19 -4 35 -10 35 -5 0 -10 18 -10 40 0 22 -4 40 -10
40 -5 0 -10 20 -10 45 0 25 -4 45 -9 45 -5 0 -12 32 -16 70 -4 39 -11 70 -16
70 -5 0 -9 18 -9 39 0 22 -4 41 -8 43 -5 2 -12 24 -15 50 -6 46 -5 49 33 88
22 23 40 47 40 55 0 8 5 15 10 15 6 0 10 18 10 40 0 22 5 40 10 40 6 0 10 75
10 205 0 130 -4 205 -10 205 -5 0 -10 20 -10 45 0 25 -4 45 -10 45 -5 0 -10 7
-10 15 0 8 -4 15 -9 15 -5 0 -11 10 -13 23 -2 14 -11 23 -25 25 -13 2 -23 8
-23 13 0 5 -7 9 -15 9 -8 0 -15 5 -15 10 0 6 -82 10 -225 10 l-225 0 0 -685z
m366 501 c8 -8 14 -24 14 -35 0 -12 5 -21 10 -21 6 0 10 -67 10 -180 0 -113
-4 -180 -10 -180 -5 0 -10 -5 -10 -11 0 -6 -6 -17 -14 -25 -8 -8 -19 -14 -25
-14 -6 0 -11 -4 -11 -10 0 -6 -30 -10 -70 -10 l-70 0 0 250 0 250 81 0 c56 0
85 -4 95 -14z"/>
<path d="M8624 12076 c-7 -7 -15 -27 -19 -44 -3 -18 -11 -32 -16 -32 -5 0 -9
-7 -9 -15 0 -11 12 -15 44 -15 41 0 45 2 51 30 4 17 11 30 16 30 5 0 9 9 9 20
0 11 5 20 10 20 6 0 10 5 10 10 0 15 -83 11 -96 -4z"/>
<path d="M4223 11904 c-10 -4 -13 -92 -13 -391 l0 -385 148 4 c131 3 151 5
168 22 18 19 19 37 19 354 0 267 -3 336 -13 340 -7 2 -25 16 -40 31 -25 25
-31 26 -142 28 -63 1 -121 0 -127 -3z m201 -110 c3 -9 6 -136 6 -284 0 -148
-3 -275 -6 -284 -8 -21 -80 -22 -100 -2 -11 12 -14 66 -14 300 l0 286 54 0
c40 0 55 -4 60 -16z"/>
<path d="M4931 11903 c-27 -5 -51 -26 -51 -42 0 -6 -4 -11 -10 -11 -6 0 -10
-117 -10 -330 l0 -330 29 -30 c28 -30 28 -30 144 -30 111 0 117 1 142 25 l25
26 0 327 c0 180 -3 337 -6 350 -4 12 -14 22 -24 22 -10 0 -20 6 -22 13 -5 12
-168 20 -217 10z m155 -107 c11 -12 14 -64 14 -286 0 -304 1 -300 -70 -300
-71 0 -70 -6 -70 314 l0 286 56 0 c35 0 61 -5 70 -14z"/>
<path d="M5530 11521 l0 -391 50 0 50 0 0 150 c0 141 1 150 19 150 38 0 51
-11 51 -46 0 -19 5 -34 10 -34 6 0 10 -16 10 -35 0 -19 5 -35 10 -35 6 0 10
-13 10 -29 0 -15 3 -49 6 -75 l7 -46 53 0 c51 0 54 1 54 25 0 14 -4 25 -10 25
-5 0 -10 16 -10 35 0 19 -4 35 -10 35 -5 0 -10 18 -10 39 0 22 -4 41 -9 43 -4
2 -11 28 -15 59 -7 52 -5 59 18 83 14 14 26 37 26 51 0 14 5 25 10 25 6 0 10
50 10 130 0 80 -4 130 -10 130 -5 0 -10 9 -10 20 0 12 -12 33 -27 48 -26 26
-31 27 -155 30 l-128 4 0 -391z m212 182 c5 -167 6 -163 -58 -163 l-54 0 0
135 0 135 54 0 55 0 3 -107z"/>
<path d="M6160 11520 l0 -390 55 0 55 0 0 180 0 180 65 0 65 0 0 40 0 40 -65
0 -65 0 0 120 0 120 75 0 75 0 0 50 0 50 -130 0 -130 0 0 -390z"/>
<path d="M6770 11903 c-20 -8 -40 -29 -40 -42 0 -6 -4 -11 -10 -11 -6 0 -10
-117 -10 -330 l0 -330 30 -31 29 -31 107 4 c74 2 109 8 112 16 2 7 10 19 18
26 9 9 14 36 14 75 l0 60 -37 -4 c-21 -1 -44 -3 -50 -4 -8 -1 -13 -14 -13 -32
0 -17 -6 -37 -14 -45 -20 -19 -72 -18 -80 2 -3 9 -6 136 -6 284 0 148 3 275 6
284 8 20 60 21 80 2 8 -8 14 -34 14 -60 l0 -46 50 0 50 0 0 80 c0 44 -4 80 -9
80 -5 0 -12 11 -15 24 -4 18 -15 25 -43 30 -46 7 -163 7 -183 -1z"/>
<path d="M7383 11903 c-14 -2 -25 -14 -29 -29 -3 -13 -10 -24 -15 -24 -5 0 -9
-156 -9 -360 l0 -360 50 0 50 0 0 145 0 145 46 0 c70 0 74 -8 74 -159 l0 -131
50 0 51 0 -3 358 -3 358 -30 29 c-28 29 -34 30 -120 32 -49 0 -100 -1 -112 -4z
m153 -107 c11 -11 14 -47 14 -155 l0 -141 -60 0 -60 0 0 155 0 155 46 0 c26 0
52 -6 60 -14z"/>
<path d="M7973 11903 c-10 -4 -13 -91 -13 -389 l0 -384 55 0 55 0 0 164 c0 90
3 171 6 180 5 12 21 16 65 16 l59 0 0 40 0 40 -59 0 c-71 0 -71 0 -71 120 0
121 -1 120 77 120 42 0 69 5 79 14 17 18 18 33 2 39 -10 4 -9 8 2 16 13 10 13
12 0 21 -15 10 -234 13 -257 3z"/>
<path d="M8530 11545 c0 -237 -4 -365 -10 -365 -16 0 -11 -37 6 -44 9 -3 72
-6 140 -6 l124 0 0 40 0 40 -80 0 -80 0 0 140 0 140 70 0 70 0 0 40 0 40 -70
0 -70 0 0 120 0 120 66 0 c43 0 70 5 80 14 19 20 18 72 -2 80 -9 3 -67 6 -130
6 l-114 0 0 -365z"/>
</g>
</svg>
